HIERARCHY
ROOT Hips
{
	OFFSET -0.001795 -0.223333 0.028219
	CHANNELS 6 Xposition Yposition Zposition Zrotation Yrotation Xrotation 
	JOINT LeftUpLeg
	{
		OFFSET 0.069520 -0.091406 -0.006815
		CHANNELS 3 Zrotation Yrotation Xrotation
		JOINT LeftLeg
		{
			OFFSET 0.034277 -0.375199 -0.004496
			CHANNELS 3 Zrotation Yrotation Xrotation
			JOINT LeftFoot
			{
				OFFSET -0.013596 -0.397961 -0.043693
				CHANNELS 3 Zrotation Yrotation Xrotation
				JOINT LeftToe
				{
					OFFSET 0.026358 -0.055791 0.119288
					CHANNELS 3 Zrotation Yrotation Xrotation
					End Site
					{
						OFFSET 0.000000 0.000000 0.000000
					}
				}
			}
		}
	}
	JOINT RightUpLeg
	{
		OFFSET -0.067670 -0.090522 -0.004320
		CHANNELS 3 Zrotation Yrotation Xrotation
		JOINT RightLeg
		{
			OFFSET -0.038290 -0.382569 -0.008850
			CHANNELS 3 Zrotation Yrotation Xrotation
			JOINT RightFoot
			{
				OFFSET 0.015774 -0.398415 -0.042312
				CHANNELS 3 Zrotation Yrotation Xrotation
				JOINT RightToe
				{
					OFFSET -0.025372 -0.048144 0.123348
					CHANNELS 3 Zrotation Yrotation Xrotation
					End Site
					{
						OFFSET 0.000000 0.000000 0.000000
					}
				}
			}
		}
	}
	JOINT Spine
	{
		OFFSET -0.002533 0.108963 -0.026696
		CHANNELS 3 Zrotation Yrotation Xrotation
		JOINT Spine1
		{
			OFFSET 0.005487 0.135180 0.001092
			CHANNELS 3 Zrotation Yrotation Xrotation
			JOINT Spine2
			{
				OFFSET 0.001457 0.052922 0.025425
				CHANNELS 3 Zrotation Yrotation Xrotation
				JOINT Neck
				{
					OFFSET -0.002778 0.213870 -0.042857
					CHANNELS 3 Zrotation Yrotation Xrotation
					JOINT Head
					{
						OFFSET 0.005152 0.064970 0.051349
						CHANNELS 3 Zrotation Yrotation Xrotation
						End Site
						{
							OFFSET 0.000000 0.000000 0.000000
						}
					}
				}
				JOINT LeftShoulder
				{
					OFFSET 0.078845 0.121749 -0.034090
					CHANNELS 3 Zrotation Yrotation Xrotation
					JOINT LeftArm
					{
						OFFSET 0.090977 0.030469 -0.008868
						CHANNELS 3 Zrotation Yrotation Xrotation
						JOINT LeftForeArm
						{
							OFFSET 0.259612 -0.012772 -0.027456
							CHANNELS 3 Zrotation Yrotation Xrotation
							JOINT LeftHand
							{
								OFFSET 0.249234 0.008986 -0.001171
								CHANNELS 3 Zrotation Yrotation Xrotation
								End Site
								{
									OFFSET 0.000000 0.000000 0.000000
								}
							}
						}
					}
				}
				JOINT RightShoulder
				{
					OFFSET -0.081759 0.118833 -0.038615
					CHANNELS 3 Zrotation Yrotation Xrotation
					JOINT RightArm
					{
						OFFSET -0.096012 0.032551 -0.009143
						CHANNELS 3 Zrotation Yrotation Xrotation
						JOINT RightForeArm
						{
							OFFSET -0.253742 -0.013329 -0.021401
							CHANNELS 3 Zrotation Yrotation Xrotation
							JOINT RightHand
							{
								OFFSET -0.255298 0.007772 -0.005559
								CHANNELS 3 Zrotation Yrotation Xrotation
								End Site
								{
									OFFSET 0.000000 0.000000 0.000000
								}
							}
						}
					}
				}
			}
		}
	}
}
MOTION
Frames: 16
Frame Time: 0.050000
0.000000 0.918757 0.000000 -0.666339 -4.254445 2.502744 7.125859 -0.605211 -34.750781 -3.750451 0.545256 15.179511 0.477871 7.512751 22.461841 0.000000 0.000000 0.000000 -0.124302 -0.976506 10.682423 1.329053 0.947164 26.143270 -2.710339 -7.040909 0.840781 0.000000 0.000000 0.000000 -9.836859 1.370147 21.436558 4.038837 -0.496391 -22.750176 4.208053 4.737883 27.305265 -3.041349 3.786433 -30.110840 0.000000 0.000000 0.000000 7.772637 -16.706270 4.890427 7.877280 -51.184984 -7.457823 82.695941 -47.223692 -40.191224 0.000000 0.000000 0.000000 -18.374246 24.031604 4.214663 4.514347 38.958709 -1.267857 -90.907762 46.756417 -42.533132 0.000000 0.000000 0.000000 
0.001122 0.911357 0.050738 -1.519239 -2.129812 2.869486 6.877348 -0.977552 -36.281557 -3.379759 0.391860 20.323712 -1.280015 5.351006 21.869452 0.000000 0.000000 0.000000 -0.781851 -0.576060 6.597536 4.430604 -0.097196 39.077290 -1.988580 -6.704702 4.522236 0.000000 0.000000 0.000000 -11.703738 1.818545 23.735998 6.183788 -1.112152 -21.305793 3.778991 6.521888 24.440006 -1.440264 3.327589 -27.508449 0.000000 0.000000 0.000000 7.829470 -16.688914 5.077848 12.960362 -55.137077 -11.149669 77.923935 -46.553392 -37.161729 0.000000 0.000000 0.000000 -18.318032 22.897990 3.851181 1.364871 38.207382 -1.580208 -87.768303 48.958555 -41.500263 0.000000 0.000000 0.000000 
0.001194 0.908007 0.095004 -1.694487 -0.666121 1.765639 7.144177 -1.077451 -36.145678 -4.736818 0.813928 28.839583 -0.858032 3.919632 14.231731 0.000000 0.000000 0.000000 -1.770116 -0.175190 2.669993 6.280304 -1.385980 48.488531 -2.883940 -7.964280 2.135615 0.000000 0.000000 0.000000 -10.918421 1.663629 26.582222 3.934170 -0.462207 -22.044493 3.468639 7.606027 25.412240 -1.095797 3.498817 -28.095941 0.000000 0.000000 0.000000 6.435208 -20.853713 6.292296 20.910342 -54.430825 -14.886710 70.072147 -43.867471 -31.082234 0.000000 0.000000 0.000000 -21.546419 23.236088 2.851574 2.049274 37.967563 -1.045995 -80.504100 45.863629 -33.487302 0.000000 0.000000 0.000000 
0.000290 0.909721 0.131507 -2.396921 -0.448568 1.725730 8.182949 -0.760160 -34.859811 -5.073200 0.935527 30.119394 -0.488138 3.440396 10.899721 0.000000 0.000000 0.000000 -1.494118 0.386740 -3.928837 6.562205 -1.767250 54.971354 -4.035929 -10.803321 2.719686 0.000000 0.000000 0.000000 -11.066958 1.797583 28.643919 3.522256 -0.353396 -22.031366 3.597391 8.237697 24.958295 0.101080 2.961980 -27.546164 0.000000 0.000000 0.000000 7.330228 -22.170395 6.569794 22.432374 -54.883676 -15.961490 67.147454 -41.122235 -27.680642 0.000000 0.000000 0.000000 -22.984825 26.621511 2.895164 -0.120588 37.160325 -1.364736 -67.923524 42.450067 -24.390125 0.000000 0.000000 0.000000 
-0.001858 0.916010 0.163799 -3.026845 0.436429 1.612068 8.667470 -0.682077 -32.605065 -4.896873 0.776452 30.743577 0.036246 3.513595 8.302300 0.000000 0.000000 0.000000 -2.288479 0.898970 -10.383565 8.307625 -3.347525 56.782477 -4.818756 -12.571293 2.628626 0.000000 0.000000 0.000000 -11.324467 1.919484 31.213271 3.035405 -0.161986 -23.042985 3.300040 8.138289 25.526796 0.284657 2.968022 -28.673528 0.000000 0.000000 0.000000 7.027168 -21.978637 6.557226 24.033713 -57.506418 -18.070444 68.182559 -40.123953 -27.417417 0.000000 0.000000 0.000000 -25.238080 27.257141 2.289880 0.178810 38.141089 -1.179363 -59.594967 38.208510 -18.178191 0.000000 0.000000 0.000000 
-0.004535 0.924626 0.193706 -4.010607 0.395358 1.683592 9.550437 -0.414463 -30.621461 -4.465849 0.603727 30.029738 0.581846 3.695610 6.053802 0.000000 0.000000 0.000000 -3.164599 1.241377 -15.824584 8.925241 -3.577032 53.578162 -5.583848 -14.073795 0.939881 0.000000 0.000000 0.000000 -10.559454 1.773604 32.965194 2.764325 -0.003672 -24.977198 3.642831 7.359159 26.572751 0.003471 3.083569 -30.780064 0.000000 0.000000 0.000000 6.900954 -21.493037 6.411842 22.644777 -58.992738 -17.878071 72.074084 -39.130201 -28.457245 0.000000 0.000000 0.000000 -27.475827 28.012969 1.788532 -1.010610 38.435986 -1.519709 -53.936970 34.202226 -14.298865 0.000000 0.000000 0.000000 
-0.007392 0.929630 0.223255 -4.817048 -0.040444 2.033896 10.609819 -0.106509 -28.579759 -4.077573 0.500510 29.584542 1.002972 3.709272 3.964408 0.000000 0.000000 0.000000 -5.280305 1.312209 -21.111906 9.593389 -3.501757 47.592964 -6.315421 -15.803859 0.902055 0.000000 0.000000 0.000000 -10.050473 1.732635 34.371621 2.887590 -0.040520 -24.903612 4.001072 7.409532 24.963518 0.412889 2.805453 -30.336100 0.000000 0.000000 0.000000 5.688861 -21.599279 6.583512 21.181882 -60.896240 -17.784880 77.265370 -40.105902 -31.610112 0.000000 0.000000 0.000000 -27.819272 27.043914 1.785264 -3.156266 40.685080 -2.199661 -51.799755 30.561992 -11.956930 0.000000 0.000000 0.000000 
-0.011435 0.932808 0.253335 -5.127529 0.310972 1.866580 11.112952 -0.031147 -26.442806 -4.183570 0.501600 29.228215 1.400865 3.912159 2.362162 0.000000 0.000000 0.000000 -8.436452 0.870023 -24.163475 10.120219 -3.283253 38.564386 -6.731150 -16.960633 3.484823 0.000000 0.000000 0.000000 -9.529356 1.530324 34.943521 3.612977 -0.171704 -25.518499 3.958622 6.853337 25.132961 -0.224727 3.082750 -30.727244 0.000000 0.000000 0.000000 3.945829 -21.826649 6.802828 23.239503 -62.983544 -19.752021 79.258075 -41.358309 -33.469681 0.000000 0.000000 0.000000 -28.674869 25.587991 1.461381 -4.647278 41.085730 -2.686907 -52.535220 27.239144 -10.642775 0.000000 0.000000 0.000000 
-0.017750 0.934708 0.283888 -5.720006 1.630322 2.411311 11.435097 -0.091776 -25.093815 -3.260788 0.032448 28.885818 1.427712 3.106116 0.122932 0.000000 0.000000 0.000000 -11.050528 0.294852 -25.235445 8.936635 -2.245223 26.491130 -6.217327 -16.216804 9.319793 0.000000 0.000000 0.000000 -8.021057 0.861796 34.393331 3.995744 -0.182325 -26.577057 3.870362 5.469922 25.071808 0.543357 2.637864 -32.447269 0.000000 0.000000 0.000000 2.163081 -22.399380 7.180894 21.918981 -65.287627 -19.796964 81.745329 -43.097007 -35.904382 0.000000 0.000000 0.000000 -27.223459 24.474734 1.835390 -6.740038 42.066488 -3.571130 -56.534340 26.532651 -11.430570 0.000000 0.000000 0.000000 
-0.027621 0.934793 0.314016 -5.618659 2.868416 2.502242 11.688190 -0.147641 -23.180248 -2.608429 -0.298871 27.924665 1.756287 3.055786 -1.618161 0.000000 0.000000 0.000000 -13.551977 -0.303299 -24.652836 6.613236 -1.114809 14.581991 -4.940553 -14.234172 15.684108 0.000000 0.000000 0.000000 -6.863905 0.345761 33.663619 3.648651 -0.104520 -26.362868 3.775168 3.725019 24.620598 -0.486352 2.962135 -32.891754 0.000000 0.000000 0.000000 2.049778 -22.652896 7.298457 24.865436 -67.519333 -22.352640 80.743138 -43.104795 -34.958882 0.000000 0.000000 0.000000 -27.296345 23.258951 1.926410 -7.510152 43.502018 -4.198193 -59.003237 24.962375 -11.402265 0.000000 0.000000 0.000000 
-0.041356 0.933527 0.341207 -5.561309 3.174558 2.847959 12.239894 -0.092826 -21.381431 -2.241130 -0.405640 26.448548 1.878672 2.573118 -3.247357 0.000000 0.000000 0.000000 -14.486273 -0.474775 -23.793808 3.767879 -0.406511 5.881689 -2.776581 -11.247208 20.852051 0.000000 0.000000 0.000000 -6.280738 0.141810 32.828908 3.903491 -0.103178 -27.373129 3.553951 3.011236 25.766121 -1.129481 3.247538 -34.988027 0.000000 0.000000 0.000000 5.301551 -22.080532 6.709080 29.808986 -70.715558 -27.413152 77.161728 -40.003915 -30.188494 0.000000 0.000000 0.000000 -26.422390 22.873534 2.096776 -10.034323 43.918510 -5.176945 -58.354863 22.272275 -10.012638 0.000000 0.000000 0.000000 
-0.058925 0.930577 0.363641 -4.923292 5.107092 3.771573 11.572832 -0.341558 -20.877325 -1.268150 -0.841161 25.552621 2.083059 2.472879 -4.253359 0.000000 0.000000 0.000000 -15.449835 -0.862960 -24.503562 2.098390 -0.187384 3.159198 -1.937943 -10.163899 24.548390 0.000000 0.000000 0.000000 -4.985693 -0.441503 32.818763 3.699340 -0.017509 -27.762593 2.636797 1.379823 25.367697 -0.576285 2.860878 -34.784277 0.000000 0.000000 0.000000 6.937242 -21.323597 6.299700 35.700990 -72.155187 -32.325962 74.245712 -39.988729 -28.471350 0.000000 0.000000 0.000000 -24.692070 22.658877 2.617977 -11.159523 43.515718 -5.674898 -59.489408 21.707285 -10.089108 0.000000 0.000000 0.000000 
-0.079284 0.927765 0.381102 -4.371486 5.551634 4.092035 11.600566 -0.367150 -19.964682 -1.033438 -0.904477 24.763989 2.247130 2.779527 -4.361230 0.000000 0.000000 0.000000 -15.235288 -0.873488 -24.904603 2.196531 -0.195797 3.760031 -1.228587 -9.128349 25.050931 0.000000 0.000000 0.000000 -4.718984 -0.592591 33.719563 3.497902 0.011495 -27.307501 2.940981 0.694414 24.449775 -1.013159 2.964216 -34.618844 0.000000 0.000000 0.000000 8.104380 -22.009014 6.321472 40.043135 -71.642901 -34.879358 67.427531 -37.439779 -23.467521 0.000000 0.000000 0.000000 -23.320517 23.265536 3.152729 -11.738878 44.038539 -6.120968 -54.914608 19.643407 -8.251095 0.000000 0.000000 0.000000 
-0.100529 0.924766 0.393784 -3.721596 7.284548 5.476040 11.848475 -0.474127 -20.050287 -0.870411 -1.005760 23.869121 2.708432 3.750835 -4.429908 0.000000 0.000000 0.000000 -15.179795 -1.131354 -26.957925 2.653050 -0.264972 5.934985 -2.086857 -10.000804 24.665708 0.000000 0.000000 0.000000 -3.637214 -1.140149 34.242543 3.754110 -0.038545 -26.649897 2.291755 -1.187377 23.852620 -1.616338 3.098393 -36.182988 0.000000 0.000000 0.000000 7.991195 -21.311664 6.178262 40.804790 -71.027771 -34.532122 61.058769 -36.981690 -20.333956 0.000000 0.000000 0.000000 -20.884079 24.205796 4.032062 -12.801319 44.613361 -6.884558 -51.345670 19.182384 -7.555236 0.000000 0.000000 0.000000 
-0.121687 0.920898 0.403100 -3.385148 6.761529 6.345557 12.692233 -0.362260 -19.312199 -1.005987 -0.856495 22.772190 3.291490 5.188831 -4.352702 0.000000 0.000000 0.000000 -14.935633 -1.140334 -29.185070 4.103379 -0.524384 7.642934 -2.441490 -10.629415 24.547087 0.000000 0.000000 0.000000 -3.183991 -1.291820 35.417696 4.353101 -0.190320 -26.139001 2.691388 -1.116197 23.662072 -2.493819 3.443694 -36.748097 0.000000 0.000000 0.000000 7.475542 -21.245809 6.260961 37.371481 -68.401947 -30.174920 56.950857 -36.025491 -18.218144 0.000000 0.000000 0.000000 -19.462309 25.017444 4.537824 -12.372385 44.668028 -6.862510 -49.335402 19.888284 -7.548418 0.000000 0.000000 0.000000 
-0.142371 0.916594 0.410669 -2.429432 7.505732 7.790212 12.884950 -0.425864 -18.770382 -1.004251 -0.799433 21.199995 3.956249 7.083489 -3.435331 0.000000 0.000000 0.000000 -14.996110 -1.402140 -31.714768 4.867136 -0.739280 10.471056 -2.860132 -10.985266 23.361522 0.000000 0.000000 0.000000 -2.330087 -1.726970 36.292373 5.219603 -0.373714 -25.706795 1.827130 -1.879375 23.495787 -3.155575 3.653551 -37.308529 0.000000 0.000000 0.000000 6.623142 -20.912315 6.335803 34.156252 -65.942356 -26.365672 52.014993 -35.714354 -16.152001 0.000000 0.000000 0.000000 -18.299643 25.501985 4.992170 -12.979682 44.299690 -7.136359 -48.254717 20.546638 -7.668394 0.000000 0.000000 0.000000 
